<?xml version="1.0" encoding="UTF-8"?>
<svg width="100px" height="100px" viewBox="0 0 100 100" version="1.1" xmlns="http://www.w3.org/2000/svg" xmlns:xlink="http://www.w3.org/1999/xlink">
    <!-- Generator: Sketch 52.4 (67378) - http://www.bohemiancoding.com/sketch -->
    <title>best</title>
    <desc>Created with Sketch.</desc>
    <g id="best" stroke="none" stroke-width="1" fill="none" fill-rule="evenodd">
        <polygon id="Rectangle" fill="#BD3F32" points="0 0 60 0 100 40 100 100"></polygon>
        <path d="M50.0709524,31.6690476 L50.0709524,21.7290476 L52.0029524,21.7290476 L52.0029524,29.9750476 L57.0709524,29.9750476 L57.0709524,31.6690476 L50.0709524,31.6690476 Z M65.1489524,29.9750476 L65.1489524,31.6690476 L58.2469524,31.6690476 L58.2469524,21.7290476 L65.0229524,21.7290476 L65.0229524,23.4230476 L60.1789524,23.4230476 L60.1789524,25.8170476 L64.3649524,25.8170476 L64.3649524,27.3850476 L60.1789524,27.3850476 L60.1789524,29.9750476 L65.1489524,29.9750476 Z M73.5629524,30.5490476 C72.7696151,31.3423849 71.8456244,31.7390476 70.7909524,31.7390476 C70.1376158,31.7390476 69.5239553,31.6083822 68.9499524,31.3470476 C68.3759496,31.0857129 67.8766212,30.7263832 67.4519524,30.2690476 C67.0272837,29.8117119 66.691287,29.2727173 66.4439524,28.6520476 C66.1966179,28.0313778 66.0729524,27.3617178 66.0729524,26.6430476 C66.0729524,25.9617108 66.1966179,25.3200506 66.4439524,24.7180476 C66.691287,24.1160445 67.0319503,23.5887165 67.4659524,23.1360476 C67.8999546,22.6833786 68.4109495,22.3240489 68.9989524,22.0580476 C69.5869554,21.7920462 70.2262823,21.6590476 70.9169524,21.6590476 C71.8502904,21.6590476 72.6506158,21.8550456 73.3179524,22.2470476 C73.9852891,22.6390495 74.4869508,23.1663776 74.8229524,23.8290476 L73.3809524,24.8930476 C73.1289512,24.3983784 72.7766214,24.0203822 72.3239524,23.7590476 C71.8712835,23.4977129 71.3789551,23.3670476 70.8469524,23.3670476 C70.4269503,23.3670476 70.0419542,23.4557133 69.6919524,23.6330476 C69.3419507,23.8103818 69.043287,24.053046 68.7959524,24.3610476 C68.5486179,24.6690491 68.3572865,25.0237122 68.2219524,25.4250476 C68.0866184,25.8263829 68.0189524,26.2510453 68.0189524,26.6990476 C68.0189524,27.1657166 68.0936184,27.6020455 68.2429524,28.0080476 C68.3922865,28.4140496 68.5976178,28.7663794 68.8589524,29.0650476 C69.1202871,29.3637157 69.4306173,29.59938 69.7899524,29.7720476 C70.1492876,29.9447151 70.5389503,30.0310476 70.9589524,30.0310476 C71.9202906,30.0310476 72.7882819,29.5783854 73.5629524,28.6730476 L73.5629524,27.9730476 L71.5609524,27.9730476 L71.5609524,26.5590476 L75.1589524,26.5590476 L75.1589524,31.6690476 L73.5629524,31.6690476 L73.5629524,30.5490476 Z M76.5869524,28.6730476 L76.5869524,26.9790476 L80.8289524,26.9790476 L80.8289524,28.6730476 L76.5869524,28.6730476 Z M21.3779524,47.6690476 L21.3779524,37.7430476 L23.3099524,37.7430476 L23.3099524,42.4610476 L27.4819524,37.7290476 L29.6099524,37.7290476 L25.8019524,42.1390476 L29.8479524,47.6690476 L27.6779524,47.6690476 L24.5839524,43.3710476 L23.3099524,44.7010476 L23.3099524,47.6690476 L21.3779524,47.6690476 Z M37.6459524,45.9750476 L37.6459524,47.6690476 L30.7439524,47.6690476 L30.7439524,37.7290476 L37.5199524,37.7290476 L37.5199524,39.4230476 L32.6759524,39.4230476 L32.6759524,41.8170476 L36.8619524,41.8170476 L36.8619524,43.3850476 L32.6759524,43.3850476 L32.6759524,45.9750476 L37.6459524,45.9750476 Z M39.1579524,47.6690476 L39.1579524,37.7290476 L42.7699524,37.7290476 C43.5819565,37.7290476 44.2936161,37.8597129 44.9049524,38.1210476 C45.5162888,38.3823822 46.0272837,38.7370453 46.4379524,39.1850476 C46.8486212,39.6330498 47.1566181,40.1580445 47.3619524,40.7600476 C47.5672868,41.3620506 47.6699524,42.0037108 47.6699524,42.6850476 C47.6699524,43.4410513 47.5556203,44.1247112 47.3269524,44.7360476 C47.0982846,45.3473839 46.7692879,45.8700454 46.3399524,46.3040476 C45.910617,46.7380497 45.3949555,47.0740464 44.7929524,47.3120476 C44.1909494,47.5500487 43.5166228,47.6690476 42.7699524,47.6690476 L39.1579524,47.6690476 Z M45.7239524,42.6850476 C45.7239524,42.2090452 45.6586198,41.7703829 45.5279524,41.3690476 C45.3972851,40.9677122 45.2059537,40.6223823 44.9539524,40.3330476 C44.7019512,40.0437128 44.391621,39.819715 44.0229524,39.6610476 C43.6542839,39.5023801 43.2366214,39.4230476 42.7699524,39.4230476 L41.0899524,39.4230476 L41.0899524,45.9750476 L42.7699524,45.9750476 C43.2459548,45.9750476 43.6682839,45.8910484 44.0369524,45.7230476 C44.405621,45.5550467 44.7136179,45.324049 44.9609524,45.0300476 C45.208287,44.7360461 45.3972851,44.3883829 45.5279524,43.9870476 C45.6586198,43.5857122 45.7239524,43.1517166 45.7239524,42.6850476 Z M50.2039524,37.7290476 L52.8919524,45.2470476 L55.5519524,37.7290476 L57.5819524,37.7290476 L53.7039524,47.6690476 L52.0799524,47.6690476 L48.1739524,37.7290476 L50.2039524,37.7290476 Z M65.5479524,45.9750476 L65.5479524,47.6690476 L58.6459524,47.6690476 L58.6459524,37.7290476 L65.4219524,37.7290476 L65.4219524,39.4230476 L60.5779524,39.4230476 L60.5779524,41.8170476 L64.7639524,41.8170476 L64.7639524,43.3850476 L60.5779524,43.3850476 L60.5779524,45.9750476 L65.5479524,45.9750476 Z M67.0599524,47.6690476 L67.0599524,37.7290476 L68.9919524,37.7290476 L68.9919524,45.9750476 L74.0599524,45.9750476 L74.0599524,47.6690476 L67.0599524,47.6690476 Z M82.6699524,39.4230476 L79.4919524,39.4230476 L79.4919524,47.6690476 L77.5739524,47.6690476 L77.5739524,39.4230476 L74.3959524,39.4230476 L74.3959524,37.7290476 L82.6699524,37.7290476 L82.6699524,39.4230476 Z M90.8039524,45.9750476 L90.8039524,47.6690476 L83.9019524,47.6690476 L83.9019524,37.7290476 L90.6779524,37.7290476 L90.6779524,39.4230476 L85.8339524,39.4230476 L85.8339524,41.8170476 L90.0199524,41.8170476 L90.0199524,43.3850476 L85.8339524,43.3850476 L85.8339524,45.9750476 L90.8039524,45.9750476 Z M100.323952,45.1070476 C100.323952,45.5270497 100.239953,45.8957126 100.071952,46.2130476 C99.9039516,46.5303825 99.6729539,46.7963798 99.3789524,47.0110476 C99.084951,47.2257153 98.7442877,47.389047 98.3569524,47.5010476 C97.9696172,47.6130481 97.5566213,47.6690476 97.1179524,47.6690476 L92.3159524,47.6690476 L92.3159524,37.7290476 L97.6359524,37.7290476 C97.9812875,37.7290476 98.293951,37.8037135 98.5739524,37.9530476 C98.8539538,38.1023816 99.0919515,38.2960464 99.2879524,38.5340476 C99.4839534,38.7720487 99.6356186,39.0427127 99.7429524,39.3460476 C99.8502863,39.6493824 99.9039524,39.955046 99.9039524,40.2630476 C99.9039524,40.7483833 99.7826203,41.2033788 99.5399524,41.6280476 C99.2972846,42.0527163 98.9426214,42.3677132 98.4759524,42.5730476 C99.0452886,42.7410484 99.4956175,43.0420454 99.8269524,43.4760476 C100.158287,43.9100497 100.323952,44.453711 100.323952,45.1070476 Z M98.3779524,44.7430476 C98.3779524,44.5657133 98.3476194,44.3953817 98.2869524,44.2320476 C98.2262855,44.0687134 98.1446196,43.9263815 98.0419524,43.8050476 C97.9392853,43.6837136 97.8179531,43.5880479 97.6779524,43.5180476 C97.5379517,43.4480472 97.3839533,43.4130476 97.2159524,43.4130476 L94.2479524,43.4130476 L94.2479524,46.0310476 L97.1179524,46.0310476 C97.2952867,46.0310476 97.4609517,45.9983812 97.6149524,45.9330476 C97.7689532,45.8677139 97.9019519,45.7767148 98.0139524,45.6600476 C98.125953,45.5433803 98.2146188,45.405715 98.2799524,45.2470476 C98.3452861,45.0883801 98.3779524,44.9203818 98.3779524,44.7430476 Z M94.2479524,39.3810476 L94.2479524,41.8870476 L96.8239524,41.8870476 C97.1506207,41.8870476 97.4282846,41.7750487 97.6569524,41.5510476 C97.8856203,41.3270464 97.9999524,41.0190495 97.9999524,40.6270476 C97.9999524,40.244379 97.8949535,39.9410487 97.6849524,39.7170476 C97.4749514,39.4930464 97.215954,39.3810476 96.9079524,39.3810476 L94.2479524,39.3810476 Z M109.843952,45.1070476 C109.843952,45.5270497 109.759953,45.8957126 109.591952,46.2130476 C109.423952,46.5303825 109.192954,46.7963798 108.898952,47.0110476 C108.604951,47.2257153 108.264288,47.389047 107.876952,47.5010476 C107.489617,47.6130481 107.076621,47.6690476 106.637952,47.6690476 L101.835952,47.6690476 L101.835952,37.7290476 L107.155952,37.7290476 C107.501288,37.7290476 107.813951,37.8037135 108.093952,37.9530476 C108.373954,38.1023816 108.611951,38.2960464 108.807952,38.5340476 C109.003953,38.7720487 109.155619,39.0427127 109.262952,39.3460476 C109.370286,39.6493824 109.423952,39.955046 109.423952,40.2630476 C109.423952,40.7483833 109.30262,41.2033788 109.059952,41.6280476 C108.817285,42.0527163 108.462621,42.3677132 107.995952,42.5730476 C108.565289,42.7410484 109.015617,43.0420454 109.346952,43.4760476 C109.678287,43.9100497 109.843952,44.453711 109.843952,45.1070476 Z M107.897952,44.7430476 C107.897952,44.5657133 107.867619,44.3953817 107.806952,44.2320476 C107.746285,44.0687134 107.66462,43.9263815 107.561952,43.8050476 C107.459285,43.6837136 107.337953,43.5880479 107.197952,43.5180476 C107.057952,43.4480472 106.903953,43.4130476 106.735952,43.4130476 L103.767952,43.4130476 L103.767952,46.0310476 L106.637952,46.0310476 C106.815287,46.0310476 106.980952,45.9983812 107.134952,45.9330476 C107.288953,45.8677139 107.421952,45.7767148 107.533952,45.6600476 C107.645953,45.5433803 107.734619,45.405715 107.799952,45.2470476 C107.865286,45.0883801 107.897952,44.9203818 107.897952,44.7430476 Z M103.767952,39.3810476 L103.767952,41.8870476 L106.343952,41.8870476 C106.670621,41.8870476 106.948285,41.7750487 107.176952,41.5510476 C107.40562,41.3270464 107.519952,41.0190495 107.519952,40.6270476 C107.519952,40.244379 107.414953,39.9410487 107.204952,39.7170476 C106.994951,39.4930464 106.735954,39.3810476 106.427952,39.3810476 L103.767952,39.3810476 Z" id="LEG-KEDVELTEBB" fill="#FFFFFF" transform="translate(65.610952, 34.664048) rotate(-315.000000) translate(-65.610952, -34.664048) "></path>
    </g>
</svg>