<?xml version="1.0" encoding="UTF-8"?>
<svg width="310px" height="70px" viewBox="0 0 310 70" version="1.1" xmlns="http://www.w3.org/2000/svg" xmlns:xlink="http://www.w3.org/1999/xlink">
    <!-- Generator: Sketch 52.4 (67378) - http://www.bohemiancoding.com/sketch -->
    <title>logo</title>
    <desc>Created with Sketch.</desc>
    <g id="logo" stroke="none" stroke-width="1" fill="none" fill-rule="evenodd">
        <path d="M91.264,45.144 C88.9759886,45.144 87.0160082,44.344008 85.384,42.744 C83.7519918,41.143992 82.936,39.1160123 82.936,36.66 C82.936,34.2039877 83.7519918,32.180008 85.384,30.588 C87.0160082,28.995992 89.0239881,28.2 91.408,28.2 C93.1360086,28.2 94.6759932,28.6079959 96.028,29.424 C97.3800068,30.2400041 98.3759968,31.4159923 99.016,32.952 L96.376,32.952 C95.383995,31.0799906 93.7280116,30.144 91.408,30.144 C89.599991,30.144 88.1080059,30.739994 86.932,31.932 C85.7559941,33.124006 85.168,34.7039902 85.168,36.672 C85.168,38.6400098 85.7559941,40.223994 86.932,41.424 C88.1080059,42.624006 89.5719912,43.224 91.324,43.224 C93.0760088,43.224 94.4839947,42.728005 95.548,41.736 C96.6120053,40.743995 97.2319991,39.4000085 97.408,37.704 L90.544,37.704 L90.544,35.976 L99.712,35.976 L99.712,37.704 C99.4879989,39.8480107 98.6000078,41.623993 97.048,43.032 C95.4959922,44.440007 93.5680115,45.144 91.264,45.144 Z M113.92,45 L112.624,41.352 L105.232,41.352 L103.936,45 L101.704,45 L107.752,28.368 L110.152,28.368 L116.176,45 L113.92,45 Z M105.856,39.624 L112,39.624 L108.928,31.032 L105.856,39.624 Z M111.28,22.752 L111.28,24.768 L106.168,27.456 L106.168,25.776 L111.28,22.752 Z M119.032,28.368 L124.984,28.368 C126.680008,28.368 127.991995,28.7799959 128.92,29.604 C129.848005,30.4280041 130.312,31.4879935 130.312,32.784 C130.312,34.6400093 129.248011,35.863997 127.12,36.456 C128.192005,36.6320009 129.055997,37.1119961 129.712,37.896 C130.368003,38.6800039 130.696,39.5839949 130.696,40.608 C130.696,41.8720063 130.204005,42.9199958 129.22,43.752 C128.235995,44.5840042 126.920008,45 125.272,45 L119.032,45 L119.032,28.368 Z M121.216,30.12 L121.216,35.592 L124.888,35.592 C125.896005,35.592 126.683997,35.3480024 127.252,34.86 C127.820003,34.3719976 128.104,33.7080042 128.104,32.868 C128.104,32.0279958 127.820003,31.3600025 127.252,30.864 C126.683997,30.3679975 125.896005,30.12 124.888,30.12 L121.216,30.12 Z M121.216,43.272 L125.152,43.272 C126.208005,43.272 127.035997,43.0080026 127.636,42.48 C128.236003,41.9519974 128.536,41.2280046 128.536,40.308 C128.536,39.3879954 128.212003,38.6640026 127.564,38.136 C126.915997,37.6079974 126.056005,37.344 124.984,37.344 L121.216,37.344 L121.216,43.272 Z M135.904,38.136 L135.904,45 L133.72,45 L133.72,28.368 L139.12,28.368 C140.992009,28.368 142.419995,28.8239954 143.404,29.736 C144.388005,30.6480046 144.88,31.7639934 144.88,33.084 C144.88,34.4040066 144.520004,35.5039956 143.8,36.384 C143.079996,37.2640044 142.000007,37.8159989 140.56,38.04 L145.144,45 L142.408,45 L138.04,38.136 L135.904,38.136 Z M135.904,30.12 L135.904,36.408 L139.12,36.408 C140.320006,36.408 141.211997,36.1320028 141.796,35.58 C142.380003,35.0279972 142.672,34.256005 142.672,33.264 C142.672,31.1679895 141.488012,30.12 139.12,30.12 L135.904,30.12 Z M148.528,45 L148.528,28.368 L150.712,28.368 L150.712,45 L148.528,45 Z M163.12,28.368 L163.12,30.096 L156.496,30.096 L156.496,35.76 L162.4,35.76 L162.4,37.464 L156.496,37.464 L156.496,43.272 L163.12,43.272 L163.12,45 L154.312,45 L154.312,28.368 L163.12,28.368 Z M166.432,28.368 L168.616,28.368 L168.616,43.32 L174.448,43.32 L174.448,45 L166.432,45 L166.432,28.368 Z M196,41.424 C197.168006,40.223994 197.752,38.6400098 197.752,36.672 C197.752,34.7039902 197.168006,33.124006 196,31.932 C194.831994,30.739994 193.340009,30.144 191.524,30.144 C189.707991,30.144 188.212006,30.739994 187.036,31.932 C185.859994,33.124006 185.272,34.7039902 185.272,36.672 C185.272,38.6400098 185.863994,40.223994 187.048,41.424 C188.232006,42.624006 189.727991,43.224 191.536,43.224 C193.344009,43.224 194.831994,42.624006 196,41.424 Z M191.536,45.168 C189.151988,45.168 187.144008,44.364008 185.512,42.756 C183.879992,41.147992 183.064,39.1160123 183.064,36.66 C183.064,34.2039877 183.879992,32.180008 185.512,30.588 C187.144008,28.995992 189.151988,28.2 191.536,28.2 C193.920012,28.2 195.923992,28.995992 197.548,30.588 C199.172008,32.180008 199.984,34.2079877 199.984,36.672 C199.984,39.1360123 199.172008,41.167992 197.548,42.768 C195.923992,44.368008 193.920012,45.168 191.536,45.168 Z M204.88,38.136 L204.88,45 L202.696,45 L202.696,28.368 L208.096,28.368 C209.968009,28.368 211.395995,28.8239954 212.38,29.736 C213.364005,30.6480046 213.856,31.7639934 213.856,33.084 C213.856,34.4040066 213.496004,35.5039956 212.776,36.384 C212.055996,37.2640044 210.976007,37.8159989 209.536,38.04 L214.12,45 L211.384,45 L207.016,38.136 L204.88,38.136 Z M204.88,30.12 L204.88,36.408 L208.096,36.408 C209.296006,36.408 210.187997,36.1320028 210.772,35.58 C211.356003,35.0279972 211.648,34.256005 211.648,33.264 C211.648,31.1679895 210.464012,30.12 208.096,30.12 L204.88,30.12 Z M228.976,45 L227.68,41.352 L220.288,41.352 L218.992,45 L216.76,45 L222.808,28.368 L225.208,28.368 L231.232,45 L228.976,45 Z M220.912,39.624 L227.056,39.624 L223.984,31.032 L220.912,39.624 Z M226.336,22.752 L226.336,24.768 L221.224,27.456 L221.224,25.776 L226.336,22.752 Z M236.272,45 L234.088,45 L234.088,28.368 L236.272,28.368 L236.272,36.072 L243.112,28.368 L245.968,28.368 L238.192,36.792 L245.968,45 L243.064,45 L236.272,37.56 L236.272,45 Z M248.416,39.168 L248.416,28.368 L250.624,28.368 L250.624,39.168 C250.624,40.5440069 250.987996,41.5719966 251.716,42.252 C252.444004,42.9320034 253.447994,43.272 254.728,43.272 C256.008006,43.272 257.015996,42.9320034 257.752,42.252 C258.488004,41.5719966 258.856,40.5440069 258.856,39.168 L258.856,28.368 L261.04,28.368 L261.04,39.168 C261.04,41.1200098 260.444006,42.6079949 259.252,43.632 C258.059994,44.6560051 256.548009,45.168 254.716,45.168 C252.883991,45.168 251.376006,44.6560051 250.192,43.632 C249.007994,42.6079949 248.416,41.1200098 248.416,39.168 Z M264.592,28.368 L266.776,28.368 L266.776,43.32 L272.608,43.32 L272.608,45 L264.592,45 L264.592,28.368 Z M274.864,39.168 L274.864,28.368 L277.072,28.368 L277.072,39.168 C277.072,40.5440069 277.435996,41.5719966 278.164,42.252 C278.892004,42.9320034 279.895994,43.272 281.176,43.272 C282.456006,43.272 283.463996,42.9320034 284.2,42.252 C284.936004,41.5719966 285.304,40.5440069 285.304,39.168 L285.304,28.368 L287.488,28.368 L287.488,39.168 C287.488,41.1200098 286.892006,42.6079949 285.7,43.632 C284.507994,44.6560051 282.996009,45.168 281.164,45.168 C279.331991,45.168 277.824006,44.6560051 276.64,43.632 C275.455994,42.6079949 274.864,41.1200098 274.864,39.168 Z M308.008,28.368 L308.008,45 L305.8,45 L305.8,32.88 L300.232,45 L298.816,45 L293.224,32.88 L293.224,45 L291.04,45 L291.04,28.368 L293.272,28.368 L299.536,42 L305.776,28.368 L308.008,28.368 Z" id="GÁBRIEL-ORÁKULUM-Copy" fill="#FFFFFF"></path>
        <g id="Group" fill="#FFE000">
            <path d="M52.5739996,33.6843711 C52.4250161,33.7927465 52.2413594,33.857236 52.0430546,33.857236 C51.7627951,33.857236 51.5129441,33.730105 51.3465312,33.5311856 C51.3354989,33.5094736 51.3211289,33.4881311 51.3082424,33.4671582 C51.2871047,33.4338972 51.2644837,33.4017449 51.2402866,33.371348 C51.1444254,33.2520703 51.0256651,33.1539503 50.889939,33.0840098 C50.7405846,33.0068628 50.5722249,32.9620528 50.3923693,32.9620528 C50.2392139,32.9620528 50.10117,32.992542 49.9614574,33.0519499 C49.9295655,33.0662706 49.9126924,33.0720913 49.8799661,33.0909392 C49.8401939,33.1119121 49.8033884,33.1358416 49.7674173,33.1615265 C49.7483192,33.1725211 49.7285722,33.1829613 49.7090106,33.1928472 C49.5091298,33.2935542 49.2847738,33.3506523 49.0462333,33.3506523 C48.6300622,33.3506523 48.2546831,33.1771407 47.9887007,32.8990416 C47.9877736,32.8990416 47.9872173,32.897471 47.9864757,32.8971014 C47.9341877,32.8195848 47.8756883,32.7459486 47.812368,32.6772092 C47.7480279,32.6068067 47.6776617,32.5422249 47.6034017,32.4822627 C47.2845751,32.2289247 46.8820323,32.0768479 46.4432401,32.0768479 C46.2758075,32.0768479 46.1139374,32.0988371 45.9596695,32.1404134 C45.814209,32.1792179 45.6770922,32.2353921 45.5489682,32.3057945 C45.473503,32.3469089 45.4025806,32.391996 45.334903,32.4422571 C45.324705,32.4501104 45.3151559,32.4576865 45.3056996,32.4652626 C44.9928064,32.641546 44.6315191,32.7431768 44.2472399,32.7428073 C43.7645037,32.7428073 43.3190365,32.5847251 42.960345,32.3177131 C42.8630932,32.2088757 42.7558288,32.109185 42.6383663,32.0218749 C42.6367903,32.0203966 42.636234,32.0189183 42.6345653,32.0180868 C42.6345653,32.0180868 42.6334528,32.0180868 42.6334528,32.0187335 C42.6094411,32.00044 42.5846878,31.9834399 42.5603053,31.9668094 C42.2160764,31.7327812 41.8001835,31.5955796 41.3521204,31.5955796 C41.1804232,31.5955796 41.0136395,31.6183079 40.8523257,31.6564657 L47.4918727,27.474725 L39.7636429,29.2110422 C39.7743971,29.2050367 39.7846878,29.2004172 39.793866,29.1945041 L39.7979452,29.1989389 L39.8073088,29.1855421 C39.8124078,29.1824008 39.8175068,29.1794442 39.8230694,29.1761181 C39.8230694,29.1726997 39.8224204,29.1689116 39.8224204,29.1652159 C39.8201954,28.6143766 40.0298107,28.0637221 40.4519152,27.6430627 C40.5656692,27.5302524 40.6877671,27.4333335 40.8182088,27.3504582 C40.9587558,27.2613002 41.1063486,27.1890499 41.2608947,27.1358323 L41.2962168,27.1207724 C41.5664638,27.016185 41.8020376,26.8466462 42.0199967,26.6294334 C42.2731852,26.3770192 42.448869,26.0783169 42.5493656,25.7602123 C42.5860784,25.6443531 42.6135203,25.5258145 42.6300225,25.4063521 C42.6398497,25.3304061 42.6467102,25.2536286 42.6487498,25.1774978 C42.6493987,25.1417422 42.6493987,25.1064486 42.6493987,25.0712474 C42.7062294,24.6929957 42.8802444,24.3285105 43.1721853,24.0373843 C43.337671,23.872927 43.5255923,23.7465352 43.7267711,23.6563609 C43.7985279,23.6244858 43.8726025,23.5971378 43.9469552,23.5745018 C43.9974816,23.5648007 44.0474518,23.5514963 44.0969585,23.5360669 C44.1355255,23.524056 44.1746487,23.5106592 44.2122886,23.4949526 C44.388065,23.4242729 44.5531799,23.3173757 44.6955811,23.1750001 C44.9465446,22.925173 45.1011833,22.6029107 45.1321482,22.2760289 C45.1487431,22.1012238 45.1080438,22.0064299 45.1339097,21.7425592 C45.1352076,21.7202005 45.1456837,21.6534013 45.1456837,21.6534013 C45.1856413,21.4481993 45.2844692,21.2520517 45.4441143,21.0936 C45.509845,21.0275399 45.584105,20.9727516 45.6608681,20.9276645 C45.7359625,20.8833164 45.8159704,20.8474685 45.898018,20.8231694 C45.9623581,20.8170716 46.0254003,20.8045063 46.0863101,20.7849193 C46.1395252,20.7683812 46.1911641,20.7474083 46.2405781,20.7209842 C46.3182683,20.6800547 46.3904887,20.6274838 46.4559413,20.5625325 C46.7305456,20.2882215 46.7907138,19.8816056 46.6376511,19.5489955 C46.6180895,19.5047399 46.5938924,19.4618702 46.5667286,19.4208482 C46.5658943,19.4205711 46.5658943,19.4197395 46.5658943,19.41937 C46.565338,19.4205711 46.5647818,19.4208482 46.5647818,19.4220493 C46.5366909,19.6039686 46.4529746,19.7779422 46.3119641,19.9182852 C46.1145864,20.1155414 45.8469353,20.2018353 45.5891113,20.1784602 C45.5651923,20.1717156 45.5402536,20.1657101 45.5161492,20.1604438 C45.4764697,20.1523133 45.4387371,20.1452916 45.3997066,20.1409491 C45.249147,20.1237643 45.0937666,20.1379926 44.9482133,20.184558 C44.788012,20.2352811 44.6367108,20.3228684 44.5102556,20.4489831 C44.4015078,20.5568966 44.3255791,20.6759895 44.2691193,20.8157781 C44.2567889,20.8487619 44.2484451,20.8653925 44.2390815,20.9013328 C44.2257314,20.9439254 44.2166459,20.9867951 44.2084875,21.0305888 C44.2041302,21.0516541 44.1970843,21.072627 44.1897603,21.0936 C44.1209701,21.3051769 44.0025806,21.5040963 43.8338501,21.6721568 C43.5399623,21.9653156 43.1511403,22.1071369 42.7656559,22.0985445 C42.7640799,22.0985445 42.7633382,22.0982673 42.7633382,22.0982673 C42.6706291,22.0800661 42.5773638,22.0688867 42.4836349,22.0651911 C42.3885153,22.0605715 42.2929323,22.0648215 42.1979982,22.0752617 C41.7921178,22.1196098 41.3996802,22.2966323 41.0897537,22.6053129 C40.9714569,22.7232047 40.8724436,22.8533846 40.7926211,22.9915102 C40.7171559,23.1211358 40.6599544,23.2574135 40.6193478,23.3986804 C40.5951507,23.4798927 40.5770724,23.5622137 40.565113,23.6457358 C40.5636296,23.6580239 40.5620536,23.6700349 40.5606629,23.6821382 C40.4650798,24.0275907 40.2808669,24.353641 40.0087657,24.6244411 C39.6678744,24.9647197 39.2411344,25.166688 38.7972433,25.2304383 C38.6515046,25.2215687 38.5045607,25.2270198 38.3598418,25.2478079 L38.3546501,25.2478079 L38.3546501,25.2483622 C38.3243342,25.2534438 38.2948527,25.2581558 38.2656494,25.2637917 C37.856246,25.3416779 37.464921,25.5379178 37.1476704,25.8540822 C37.060802,25.9403761 36.9845952,26.0343384 36.9154342,26.1317193 L38.6207252,18.5937578 L34.3972699,25.2529818 C34.3972699,25.251134 34.3981042,25.249471 34.3988459,25.2478079 C34.3957865,25.2455905 34.3930052,25.2427264 34.3906875,25.240047 C33.997601,24.8523714 33.7558157,24.3145594 33.7558157,23.7202959 C33.7558157,23.5607355 33.7731523,23.4056098 33.8070838,23.2559353 C33.8432403,23.0936954 33.8967335,22.9382926 33.9677486,22.7915746 L33.9790591,22.7674604 C34.0950382,22.5031277 34.1438959,22.2058112 34.1438959,21.8985164 C34.1438959,21.542254 34.0573056,21.2068722 33.9028523,20.911034 C33.846207,20.8029357 33.7813107,20.6999189 33.7082559,20.6038316 C33.6615305,20.5432226 33.6124874,20.4847387 33.5589943,20.429396 C33.5347972,20.4030644 33.5097657,20.3783034 33.4842707,20.3540044 C33.2560209,20.04634 33.1210365,19.665871 33.1210365,19.2537117 C33.1210365,19.0211618 33.1637754,18.7995141 33.2430417,18.5944045 C33.2709471,18.5207683 33.3033953,18.4492571 33.3402935,18.3804253 C33.3690333,18.3378328 33.394621,18.2939467 33.4187254,18.2486748 C33.4374526,18.2119953 33.4563653,18.175131 33.4722185,18.1374352 C33.5452733,17.963092 33.5868997,17.771564 33.5868997,17.5708893 C33.5868997,17.2169367 33.4670268,16.8800765 33.2560209,16.62757 C33.1442138,16.4924934 33.048538,16.4541508 32.8790658,16.2495032 C32.8646032,16.2320412 32.8247383,16.1774377 32.8247383,16.1774377 C32.7072758,16.0044804 32.6383003,15.7960447 32.6384857,15.5710709 C32.6384857,15.4782173 32.6516504,15.3881354 32.6738079,15.301472 C32.6956872,15.2166564 32.7258177,15.1358137 32.7666097,15.0603296 C32.8081433,15.0111773 32.8442999,14.9574977 32.873596,14.9002148 C32.8993691,14.8512472 32.920414,14.8000622 32.9371017,14.7468446 C32.9625967,14.6635073 32.9768739,14.574996 32.9768739,14.4832511 C32.9768739,14.0953907 32.7306385,13.7656448 32.3865951,13.637867 C32.3411676,13.6205898 32.2948131,13.607193 32.2455846,13.5978614 C32.2444721,13.5978614 32.2437304,13.5978614 32.2437304,13.5971223 C32.2437304,13.5978614 32.2444721,13.5988777 32.2450283,13.5994321 C32.353498,13.7483675 32.4179308,13.9312107 32.4179308,14.1286517 C32.4179308,14.4076747 32.2912902,14.6568551 32.0918729,14.8226982 C32.0700863,14.8345243 32.0489486,14.8481059 32.0266984,14.8614103 C31.9940648,14.8823832 31.9623583,14.9046496 31.931208,14.929041 C31.8115206,15.0234653 31.7133417,15.1424659 31.6426046,15.278374 C31.5645436,15.4271247 31.5212484,15.594908 31.5212484,15.7738707 C31.5212484,15.926317 31.5505445,16.0642578 31.6108981,16.2032149 C31.6257316,16.2350901 31.6304598,16.2525521 31.6500214,16.2844273 C31.6713445,16.3239709 31.6945217,16.3612048 31.7208511,16.3967756 C31.7312345,16.4161778 31.7421742,16.4352105 31.7519087,16.4551671 C31.8525907,16.6534397 31.9104412,16.8776743 31.9101631,17.1152134 C31.9104412,17.5301445 31.7360554,17.9039613 31.4578354,18.1695875 C31.4563521,18.1701418 31.456074,18.170419 31.4557958,18.1710657 C31.3780129,18.2234518 31.3033821,18.2815662 31.2347774,18.344485 C31.1638549,18.4089744 31.0985877,18.4790073 31.0391612,18.553013 C30.7846747,18.8701013 30.6319828,19.2716357 30.6319828,19.7096647 C30.6319828,19.8756926 30.6545112,20.0372857 30.6959521,20.1913026 C30.7348899,20.3350641 30.7906081,20.4730973 30.8615306,20.6012446 C30.9028788,20.6751579 30.9481208,20.7464843 30.9988327,20.8142998 C31.0064349,20.8239086 31.014686,20.8337945 31.0221954,20.8426641 C31.1988062,21.1544861 31.3009716,21.5145365 31.3009716,21.8985164 C31.3009716,22.3792304 31.1418828,22.8224334 30.8737682,23.181098 C30.7638152,23.2770006 30.6643383,23.3845445 30.5764501,23.5011428 C30.5758011,23.5023439 30.5738542,23.5039146 30.572649,23.5046537 C30.572649,23.5053929 30.5735761,23.5053929 30.5738542,23.5053929 C30.5562395,23.5298767 30.538254,23.5539909 30.5214736,23.5791214 C30.2863634,23.922449 30.1498029,24.3363638 30.1498029,24.7835396 C30.1498029,24.9000455 30.161855,25.0133178 30.1791916,25.1245574 L26.0309234,18.5826708 L27.7708876,26.2749264 C27.2214935,26.2740025 26.6721922,26.0651973 26.2528689,25.6474944 C26.1401347,25.5347765 26.0426047,25.4124499 25.9598155,25.2831939 C25.8698877,25.1428509 25.7979454,24.9946546 25.7441742,24.8419312 L25.731473,24.8142137 C25.6268045,24.5445223 25.4538093,24.3025484 25.2354794,24.0847812 C24.9829398,23.8330138 24.6828405,23.6576544 24.3635504,23.5569474 C24.2475713,23.5203603 24.1283474,23.4932895 24.0085673,23.477583 C23.9323604,23.4672351 23.8555046,23.4612296 23.7792977,23.4589198 C23.7437901,23.4578111 23.7079117,23.4574416 23.6731458,23.4580883 C23.2928531,23.4015446 22.9275793,23.2277558 22.6350821,22.93626 C22.4697818,22.7720799 22.3433266,22.58434 22.2531206,22.3844968 C22.2201162,22.3123388 22.1931379,22.2387027 22.1706096,22.164235 C22.1602261,22.1143434 22.1478031,22.0651911 22.1321353,22.0153919 C22.1201758,21.9764026 22.1064549,21.9381525 22.0913433,21.8995327 C22.0190302,21.7247276 21.9127856,21.5605476 21.7701063,21.4182644 C21.5191428,21.1680677 21.1953099,21.0141431 20.8677687,20.9837462 C20.6921777,20.9673005 20.5977998,21.0076757 20.3325591,20.9824527 C20.3094746,20.9803277 20.2430021,20.9695179 20.2430021,20.9695179 C20.0373734,20.930621 19.8401811,20.8314847 19.6812778,20.6728482 C19.6148981,20.6064185 19.5605705,20.5334291 19.5147722,20.4571135 C19.4697156,20.3814447 19.4340226,20.302727 19.409362,20.2202212 C19.4045411,20.1566557 19.3909129,20.093737 19.3711659,20.0320193 C19.3548491,19.9793561 19.333526,19.9284482 19.3072893,19.8788339 C19.2662192,19.8014097 19.2130041,19.7292517 19.1481078,19.6645775 C18.8729472,19.3905438 18.4650272,19.3303044 18.1309963,19.4829355 C18.0866814,19.5030769 18.0440352,19.5263596 18.0022234,19.5542619 C18.0022234,19.5542619 18.0015745,19.5546314 18.0012036,19.5551858 C18.0015745,19.5551858 18.0030578,19.5557401 18.0037068,19.5557401 C18.1863437,19.5844739 18.361193,19.6677189 18.5020181,19.8075075 C18.6996739,20.005041 18.7869132,20.2705747 18.7632723,20.5287171 C18.7553921,20.5526466 18.7504785,20.5767608 18.7450087,20.6012446 C18.7358305,20.6395871 18.7296189,20.6782993 18.7252616,20.716919 C18.707925,20.8676099 18.7222022,21.021442 18.7689276,21.1673285 C18.8194541,21.3267042 18.9083621,21.4767483 19.0343537,21.6036021 C19.1428234,21.7111461 19.261491,21.7877388 19.4021307,21.8435434 C19.4353205,21.8560162 19.4520082,21.8646087 19.4877939,21.8735707 C19.531089,21.8866903 19.5743842,21.8960219 19.6176793,21.9027664 C19.639466,21.9088643 19.6603255,21.9155165 19.6812778,21.9222611 C19.8936743,21.9912777 20.0928134,22.1090771 20.2617294,22.2774148 C20.5556172,22.5708508 20.6982038,22.9577873 20.6897673,23.3424139 C20.6897673,23.3427835 20.6894891,23.3440769 20.6894891,23.3445389 C20.6705765,23.4364686 20.6604712,23.5295995 20.656392,23.6227303 C20.6521274,23.7180785 20.6551868,23.8135192 20.6655702,23.9080359 C20.7108122,24.3116028 20.8878866,24.7029741 21.1987402,25.012671 C21.316388,25.1298237 21.4471078,25.2284056 21.5855225,25.3077701 C21.7155933,25.3821454 21.8527101,25.4404446 21.9940914,25.4814665 C22.0749338,25.5048416 22.1580938,25.5227656 22.2412539,25.5347765 C22.2541404,25.5370863 22.2660999,25.5379178 22.2784302,25.5392113 C22.6253476,25.6345596 22.9522399,25.8175875 23.2244338,26.0892191 C23.5653251,26.428851 23.7680799,26.8548691 23.8322346,27.2967786 C23.8235199,27.4415564 23.8290825,27.588182 23.8502202,27.732775 C23.8502202,27.7343457 23.8493858,27.7361935 23.8493858,27.7376718 C23.8502202,27.7384109 23.8502202,27.7376718 23.8510545,27.7376718 C23.855041,27.7676067 23.8599546,27.7969873 23.8657026,27.8263678 C23.9437636,28.2346467 24.1411413,28.6244473 24.458021,28.9404269 C24.5476706,29.0301393 24.6448298,29.108395 24.7454191,29.1787975 L17.1684906,27.4761109 L23.8064615,31.6571124 C23.4179177,32.0434021 22.8831716,32.2818651 22.2901116,32.2818651 C22.1306519,32.2818651 21.9749934,32.2644031 21.8244338,32.2311421 C21.6623783,32.1952017 21.5051437,32.1413373 21.3588488,32.0713044 L21.3343736,32.0597555 C21.0692256,31.9427876 20.771444,31.8940971 20.4629081,31.8940971 C20.1049583,31.8940971 19.7677753,31.9817769 19.4715698,32.1354243 C19.3635637,32.1913212 19.2598222,32.2561802 19.1631267,32.3289849 C19.1021241,32.3753655 19.0440882,32.4251646 18.9879065,32.4774583 C18.9625969,32.5017573 18.9371019,32.5267031 18.9121631,32.5525728 C18.6039981,32.7800411 18.2216658,32.9152102 17.8085541,32.9152102 C17.5746491,32.9152102 17.35224,32.8715089 17.1467039,32.7931608 C17.073371,32.7657204 17.0017069,32.7331062 16.9325459,32.6964266 C16.889807,32.6676928 16.8456775,32.641546 16.7996011,32.6179861 C16.76363,32.5985838 16.726639,32.5805675 16.6881648,32.5649533 C16.5132227,32.4913171 16.3210368,32.4505723 16.119858,32.4505723 C15.7651531,32.4505723 15.4266722,32.5694805 15.1726493,32.7789324 C15.0373867,32.8910036 14.999376,32.9868138 14.7934691,33.1553362 C14.7770596,33.1701189 14.7216195,33.2095701 14.7216195,33.2095701 C14.5478827,33.3266304 14.3388237,33.3955546 14.1135406,33.3955546 C14.0201826,33.3955546 13.9296985,33.3822502 13.8425519,33.3606306 C13.7576304,33.3384566 13.6763245,33.3081521 13.6004885,33.2664834 C13.5511673,33.2261083 13.4972106,33.1906298 13.4403799,33.1606025 C13.3910587,33.13501 13.3397905,33.1140371 13.2862974,33.097499 C13.2020248,33.0720913 13.1136731,33.0586021 13.0211494,33.0586021 C12.6322348,33.0586021 12.3015414,33.3033477 12.1730466,33.6467677 C12.1559882,33.69167 12.1422672,33.7387898 12.1329963,33.7871107 L12.1329963,33.7895128 C12.1333671,33.7885889 12.1338307,33.7880346 12.1350359,33.787665 C12.2845757,33.67892 12.4674907,33.6151697 12.66561,33.6151697 C12.9462404,33.6151697 13.1960914,33.7417463 13.361948,33.9403885 C13.3744637,33.9623777 13.386794,33.983443 13.401164,34.0046931 C13.42156,34.0378617 13.4447372,34.0701064 13.4684708,34.1005033 C13.5640538,34.2194114 13.6830923,34.3176238 13.8194674,34.3883958 C13.9681728,34.4649885 14.1369033,34.5091518 14.3171298,34.5091518 C14.4695435,34.5091518 14.6076801,34.4798636 14.7476708,34.419809 C14.780119,34.4052111 14.7966212,34.3994828 14.8293475,34.3808197 C14.8680999,34.3597544 14.905369,34.3357326 14.941989,34.3103248 C14.9612725,34.2993302 14.9808342,34.2890748 14.9998395,34.2790964 C15.1999984,34.1783895 15.4245399,34.1213838 15.6628022,34.1213838 C16.0792515,34.1213838 16.4537962,34.2945259 16.7205202,34.5723477 C16.7212619,34.5732716 16.7220963,34.5735488 16.7220963,34.5747499 C16.7746623,34.6520817 16.8328837,34.7257179 16.8966675,34.7944573 C16.9611003,34.8647674 17.0313738,34.9297188 17.1058192,34.9894038 C17.423626,35.2431114 17.8266324,35.394911 18.2654245,35.394911 C18.4324863,35.394911 18.5947272,35.3725522 18.7486243,35.3311607 C18.8940849,35.2921714 19.032036,35.2367364 19.1606235,35.1659644 C19.2350689,35.1254968 19.3063622,35.0792086 19.374318,35.0295018 C19.3840524,35.0215561 19.3931379,35.01398 19.4037067,35.0064039 C19.715951,34.8298434 20.0770529,34.7283973 20.4629081,34.7283973 C20.9445318,34.7283973 21.3894428,34.8874034 21.749154,35.1537687 C21.8454788,35.2629756 21.9532994,35.3627587 22.070391,35.4498841 C22.071689,35.4514547 22.0733577,35.4530254 22.0736358,35.4537645 C22.0748411,35.4537645 22.0748411,35.4533949 22.0749338,35.4530254 C22.0988527,35.470857 22.1237915,35.4881342 22.1488229,35.5052267 C22.4924028,35.7393472 22.9087593,35.8758098 23.3573786,35.8758098 C23.5015413,35.8758098 23.642181,35.8610271 23.778556,35.8342335 L17.1947272,39.9811425 L24.8235729,38.2667222 C24.817176,38.8061973 24.6084878,39.3431778 24.1955615,39.7551524 C24.0824564,39.8680551 23.9588752,39.9654359 23.8296387,40.0469254 C23.6889063,40.1368225 23.5402937,40.2087033 23.3867674,40.2621057 L23.3561734,40.2744862 C23.0858337,40.3787964 22.8451609,40.5513841 22.6279435,40.7689665 C22.3749404,41.0208263 22.1976806,41.3199906 22.0977402,41.6378181 C22.0611201,41.7534001 22.0343272,41.8724006 22.0174541,41.9919555 C22.0070707,42.0675319 22.0010446,42.1440322 21.9989123,42.2208097 C21.9978925,42.2558261 21.9975217,42.2910274 21.9986342,42.3265982 C21.9423598,42.7053118 21.7670469,43.0689655 21.4751987,43.3608309 C21.3102692,43.5250109 21.1218843,43.6515875 20.9213546,43.7412075 C20.8491342,43.773637 20.7753377,43.8007077 20.7004288,43.8231589 C20.6499023,43.8342459 20.6009519,43.8464416 20.5514453,43.8613167 C20.511395,43.8735124 20.4727353,43.8877407 20.4347245,43.9028006 C20.2591335,43.9739422 20.0946676,44.0805622 19.9512466,44.2222911 C19.7008394,44.4730421 19.5461079,44.7949348 19.5147722,45.121909 C19.4987336,45.2969913 19.5395256,45.3917852 19.5144941,45.6550091 C19.5123618,45.6777375 19.501793,45.7446291 19.501793,45.7446291 C19.4618353,45.9500158 19.3629147,46.1455167 19.2038259,46.3045228 C19.1372608,46.3709524 19.0644842,46.4254635 18.9869794,46.4707354 C18.9112361,46.5144367 18.8321552,46.550839 18.749366,46.5746761 C18.6860457,46.5804968 18.6219837,46.5938936 18.560703,46.613111 C18.5076734,46.6292796 18.4568688,46.6505297 18.4066205,46.6768613 C18.3293011,46.718068 18.256988,46.7710085 18.1917208,46.8350359 C17.9166529,47.109624 17.8565774,47.5160551 18.0097329,47.8491272 C18.0294799,47.8932904 18.0533988,47.9361602 18.0804699,47.9766277 C18.081397,47.9774593 18.081397,47.9780136 18.0820459,47.9792147 C18.0820459,47.9774593 18.0826949,47.9766277 18.0826949,47.975981 C18.1114347,47.7943389 18.195151,47.6199958 18.3353272,47.47993 C18.5334465,47.2824889 18.8006341,47.1960103 19.0582727,47.2197549 C19.0825625,47.2265919 19.1068522,47.2321354 19.1314201,47.2371246 C19.1699871,47.2464561 19.2087395,47.2531083 19.2476773,47.2577279 C19.3990713,47.2746356 19.5531538,47.2597605 19.6992633,47.2134723 C19.8590011,47.1631188 20.0099315,47.0747 20.1371284,46.9489549 C20.2459688,46.8406718 20.3218049,46.7229648 20.3783574,46.5822522 C20.3909659,46.5490836 20.3991243,46.5329151 20.4083952,46.4970671 C20.4215599,46.4539202 20.4303672,46.4111428 20.4376912,46.3671643 C20.4440882,46.3464686 20.4509486,46.3253109 20.4572529,46.3045228 C20.5270628,46.093223 20.6450815,45.8940265 20.8139047,45.7266127 C21.1083488,45.4328071 21.496429,45.2909858 21.8818207,45.2989315 C21.8825624,45.2997631 21.8836749,45.2997631 21.8836749,45.2997631 C21.976384,45.3178718 22.070391,45.3289588 22.163471,45.3327469 C22.2594249,45.3370893 22.3544517,45.3336708 22.4497566,45.322861 C22.8550808,45.2777738 23.2477965,45.1012133 23.5583719,44.7925326 C23.6761125,44.6747332 23.7746622,44.5443685 23.855041,44.4067973 C23.9295791,44.2773565 23.9873369,44.140432 24.0281289,44.000089 C24.051677,43.9185072 24.0702188,43.835909 24.0824564,43.7528488 C24.0847742,43.7406531 24.0855158,43.7284574 24.0871846,43.7158922 C24.1827677,43.3707168 24.3657754,43.0442045 24.6379693,42.7734044 C24.9797877,42.4334954 25.4071766,42.2314347 25.8502334,42.1676845 C25.9958793,42.1766465 26.1426378,42.1702714 26.2877276,42.1497605 C26.2897672,42.1497605 26.2914359,42.1504996 26.2929193,42.1504996 L26.2929193,42.1490213 C26.322957,42.1452333 26.3523458,42.139967 26.3817346,42.1340539 C26.7916015,42.056722 27.1823703,41.8602049 27.4995281,41.5445948 C27.6010445,41.4433335 27.6897671,41.3341266 27.7667157,41.2192837 L26.0350026,48.8745827 L30.2282348,42.2631251 C30.6080639,42.6495072 30.8434523,43.1778953 30.8434523,43.7617184 C30.8434523,43.9215561 30.825374,44.076497 30.7922769,44.2265411 C30.7558422,44.3885037 30.7024418,44.5443685 30.6314266,44.6901626 L30.6209505,44.7139997 C30.504137,44.9778704 30.4543522,45.2765727 30.4543522,45.5835903 C30.4543522,45.9404071 30.5418696,46.2759737 30.6959521,46.5712576 C30.7523192,46.6789863 30.8169375,46.7817259 30.8908266,46.8783676 C30.936903,46.9389766 30.986966,46.9974605 31.0402737,47.0528955 C31.0641926,47.0790424 31.088297,47.1038034 31.1149045,47.1281948 C31.3425053,47.4356743 31.4781387,47.8167901 31.4781387,48.2282103 C31.4781387,48.4607602 31.4348436,48.6832394 31.3569679,48.8881642 C31.3281354,48.9618928 31.2957799,49.0328496 31.2586963,49.1016815 C31.2302346,49.1444588 31.2045542,49.1884373 31.1797082,49.2335244 C31.161259,49.2699267 31.1434589,49.3066062 31.1274202,49.344764 C31.053253,49.5191071 31.012461,49.7108199 31.0131099,49.9116795 C31.012461,50.2651701 31.1314994,50.6023074 31.3425053,50.8549063 C31.4544052,50.9903526 31.5505445,51.0286951 31.7193678,51.2331579 C31.7345721,51.2503428 31.7738807,51.3054083 31.7738807,51.3054083 C31.8914358,51.4779959 31.9609677,51.6856925 31.9609677,51.9107587 C31.9609677,52.0049058 31.9478957,52.0937866 31.925182,52.1808196 C31.9031172,52.265358 31.8724305,52.3462931 31.8314531,52.4222391 C31.7903829,52.4711143 31.7548754,52.5246091 31.7247449,52.5819844 C31.6998062,52.6312291 31.6779268,52.6824141 31.66161,52.7358165 C31.6358369,52.8185071 31.621467,52.9072031 31.621467,52.9992253 C31.621467,53.3868084 31.8672388,53.7167392 32.2124874,53.8445169 C32.2578222,53.8607779 32.304733,53.8752833 32.353498,53.8844301 C32.3547032,53.8844301 32.3547032,53.8848921 32.3558157,53.8848921 C32.3547032,53.8844301 32.3547032,53.8835062 32.3542396,53.8829519 C32.2455846,53.7338317 32.1808736,53.5512657 32.1808736,53.3532703 C32.1808736,53.0746169 32.3074215,52.8251593 32.5069315,52.6598706 C32.5298306,52.6477672 32.5509683,52.6342781 32.571457,52.6214356 C32.6048323,52.6003703 32.6378367,52.5773648 32.6682453,52.5531581 C32.7872838,52.4588262 32.8856481,52.3397333 32.956756,52.2039175 C33.0336118,52.0550745 33.0781122,51.8872912 33.0781122,51.7083284 C33.0781122,51.5559745 33.047889,51.4180337 32.9882771,51.2794462 C32.9740926,51.2474787 32.9680665,51.2300166 32.9490612,51.19731 C32.9279235,51.1583207 32.9045608,51.1209944 32.878046,51.0852388 C32.8676626,51.0660214 32.857001,51.0468039 32.8472666,51.0273092 C32.7463991,50.8288519 32.6882705,50.6046172 32.6882705,50.3670782 C32.6882705,49.9527014 32.8622854,49.5779607 33.1419888,49.3129813 C33.1419888,49.3120574 33.1419888,49.3115954 33.1435648,49.3112258 C33.221255,49.2591169 33.2951442,49.2012797 33.3645833,49.1372523 C33.4346714,49.073502 33.5002167,49.0038386 33.5597359,48.9287242 C33.8139443,48.6121902 33.9668215,48.2107483 33.9668215,47.772904 C33.9668215,47.6062294 33.9442932,47.4444516 33.9028523,47.2910813 C33.8636363,47.1465807 33.8079182,47.0089171 33.7368103,46.8804002 C33.695462,46.8071336 33.6501273,46.7358072 33.599879,46.6679917 C33.5922768,46.6580134 33.5846747,46.6482199 33.5764236,46.6396275 C33.3999055,46.3276207 33.2981109,45.967755 33.2981109,45.5840523 C33.2981109,45.1029687 33.4563653,44.6598581 33.7249435,44.3020251 C33.8340621,44.2051062 33.9343734,44.0980242 34.0218907,43.9803172 C34.0234668,43.9797629 34.0247647,43.9788389 34.0265262,43.9776378 C34.0255064,43.9776378 34.0247647,43.9768063 34.0247647,43.9768063 C34.0430284,43.9525997 34.0595306,43.9282083 34.0777943,43.9040941 C34.3122556,43.5596578 34.4493724,43.1456506 34.4493724,42.6987519 C34.4493724,42.515262 34.4229503,42.3370384 34.379377,42.1667605 L38.5964354,48.8150824 L36.883635,41.2455229 C36.8867871,41.2455229 36.8894756,41.245061 36.8927205,41.245061 C37.4443395,41.2434903 37.9987399,41.4522032 38.4202881,41.8724006 C38.5333932,41.9855804 38.6305524,42.1082766 38.7136197,42.2375326 C38.803084,42.3773212 38.8747481,42.5252403 38.9290756,42.6785182 L38.9418695,42.7116868 C39.0475578,42.9810086 39.2186061,43.2179933 39.4373069,43.4354834 C39.6904954,43.687066 39.9896676,43.8630721 40.3085869,43.9634095 C40.4254931,43.9991651 40.5444388,44.0262359 40.6646825,44.0426816 C40.7408894,44.0536762 40.8168181,44.0592197 40.8931177,44.0618067 C40.9290888,44.0621762 40.9653381,44.0630078 41.0003821,44.0618067 C41.3801186,44.1185352 41.7456705,44.2922316 42.038075,44.5838198 C42.2030972,44.748277 42.3298305,44.9356474 42.4196656,45.1356754 C42.4521138,45.2074637 42.4799265,45.2811923 42.5026402,45.3560296 C42.5125601,45.4060135 42.5259102,45.4552583 42.5407437,45.5046878 C42.5520542,45.5435847 42.5665168,45.5822969 42.5825555,45.6203622 C42.6525508,45.7957217 42.7606496,45.9596246 42.9036071,46.1016306 C43.1539216,46.3516425 43.4771982,46.5056595 43.8058519,46.5367031 C43.980794,46.5531488 44.0757281,46.5124041 44.3403198,46.5383662 C44.3641461,46.5400292 44.4302477,46.550839 44.4302477,46.550839 C44.6361545,46.5898283 44.8329759,46.6883179 44.9911377,46.8472316 C45.0585372,46.9135689 45.1125866,46.9863735 45.1576432,47.0625043 C45.2029779,47.1381731 45.2385782,47.2179071 45.2634242,47.2997662 C45.269543,47.3637936 45.2823369,47.4267123 45.300786,47.4887072 C45.3182153,47.5408161 45.3396311,47.5920935 45.3654042,47.6413383 C45.4067525,47.7190397 45.4591331,47.7909204 45.5250493,47.856149 C45.8003026,48.1300903 46.2078518,48.189221 46.542068,48.0372367 C46.585734,48.0170953 46.6295854,47.9938126 46.6700993,47.9663723 C46.6707482,47.9660951 46.671768,47.9655407 46.671768,47.9655407 C46.6707482,47.9655407 46.6700993,47.9647092 46.6692649,47.9647092 C46.4861644,47.9361602 46.3119641,47.8526381 46.1709535,47.7124799 C45.9737613,47.5155008 45.8860585,47.2493203 45.9101629,46.9920094 C45.9170233,46.9678952 45.9232348,46.9435962 45.9284266,46.9186504 C45.936585,46.8804002 45.9433527,46.8422425 45.9479882,46.8033456 C45.9651394,46.652008 45.9510476,46.4985453 45.9032097,46.352936 C45.8527759,46.1938375 45.7652586,46.0437934 45.6381544,45.9168472 C45.5304264,45.8088413 45.4109244,45.7324334 45.2700993,45.6765364 C45.2377438,45.6643407 45.2211489,45.6562102 45.1849924,45.6467863 C45.1420681,45.6333895 45.0989583,45.6242427 45.054458,45.6172209 C45.0330422,45.6108459 45.012368,45.6050252 44.9911377,45.5980035 C44.7799463,45.5289869 44.5803437,45.4110027 44.4110569,45.2429422 C44.1164274,44.9495985 43.9748606,44.5629393 43.983019,44.1780354 C43.983019,44.1772039 43.9840388,44.1766496 43.9840388,44.1757256 C44.0022098,44.0831492 44.0134276,43.9904803 44.0170432,43.8973495 C44.020937,43.802186 44.0170432,43.7068378 44.0063817,43.6125982 C43.9622522,43.2087541 43.7850851,42.8171981 43.4744169,42.5079631 C43.3557493,42.3899789 43.2252149,42.291397 43.0874492,42.2126792 C42.9571002,42.13738 42.8205397,42.0797276 42.6797146,42.0391676 C42.5972962,42.0161621 42.5145997,41.9976837 42.4310688,41.9850261 C42.4196656,41.983363 42.406779,41.9825315 42.3945414,41.9804065 C42.0486438,41.885705 41.7209172,41.7023999 41.4483525,41.4312302 C41.1070903,41.0909516 40.9049845,40.6659498 40.8409225,40.2235783 C40.849359,40.0780614 40.8439819,39.9323597 40.8231224,39.7873971 C40.8231224,39.7857341 40.8235859,39.7842558 40.8235859,39.7822232 L40.8220098,39.7822232 C40.8175598,39.7527502 40.8121827,39.7234621 40.8060639,39.6942663 C40.7293008,39.2855254 40.5326648,38.8954477 40.2157851,38.5798376 C40.0922966,38.4566795 39.9565705,38.3546791 39.814262,38.2680156 L47.4872372,39.9914904 L40.8772645,35.8289672 C40.8800457,35.8289672 40.8823635,35.8297987 40.8854229,35.8298911 C40.8873698,35.8278585 40.8899656,35.824902 40.8931177,35.822315 C41.2826813,35.4315905 41.8219701,35.1896166 42.4190166,35.1896166 C42.5787544,35.1896166 42.7348765,35.2071711 42.8849725,35.2410788 C43.0468426,35.2763724 43.2025939,35.3306064 43.3500013,35.4006393 L43.3867141,35.417085 C43.6524184,35.5332214 43.9385186,35.5776618 44.2472399,35.5776618 C44.6046335,35.5776618 44.9406112,35.490906 45.2377438,35.3367042 C45.3458426,35.2805301 45.4488424,35.2157635 45.5460016,35.1426817 C45.6065406,35.0962086 45.66504,35.0466867 45.7200165,34.993931 C45.7463459,34.9697244 45.7712846,34.9451482 45.7969651,34.9193709 C46.104852,34.6918102 46.4861644,34.5570107 46.900296,34.5570107 C47.1332739,34.5570107 47.3562393,34.6003424 47.561868,34.678321 C47.6357572,34.7062233 47.707514,34.7391147 47.7767677,34.775517 C47.8191358,34.8040661 47.8635434,34.8298434 47.9095271,34.8533109 C47.9452201,34.8731751 47.9827673,34.8909143 48.0212416,34.9067133 C48.1960909,34.9803494 48.3878133,35.0207246 48.5886212,35.0207246 C48.9441606,35.0207246 49.2825488,34.9021861 49.53583,34.6926417 C49.6711853,34.5805706 49.7097522,34.4850375 49.914732,34.3162379 C49.9316978,34.302102 49.9871378,34.262004 49.9871378,34.262004 C50.1608747,34.1447589 50.369841,34.0756499 50.5949386,34.0756499 C50.6889457,34.0756499 50.7786881,34.0893239 50.8654638,34.1114055 C50.9515905,34.1336719 51.0321547,34.1639764 51.1075272,34.2046287 C51.1582391,34.245743 51.2120103,34.2808519 51.2691191,34.3109716 C51.3179768,34.3364717 51.3693377,34.357537 51.4228308,34.3743523 C51.5064544,34.3994828 51.5961968,34.413434 51.6867736,34.413434 C52.0766153,34.413434 52.4074014,34.168596 52.5352472,33.825638 C52.5524911,33.7798117 52.566212,33.7330615 52.5763173,33.6846483 L52.5763173,33.6826156 L52.5739996,33.6843711 Z" id="Fill-44"></path>
            <polygon id="Fill-46" points="32.1011803 0 33.283025 2.91179075 36.358456 1.99491916 34.7557202 4.70917775 37.4100719 6.47762633 34.2307591 6.94943241 34.4633642 10.0719424 32.1011803 7.94854038 29.7389965 10.0719424 29.9742362 6.94943241 26.7937002 6.47762633 29.4472991 4.70917775 27.8446575 1.99491916 30.9199002 2.91179075"></polygon>
            <polygon id="Fill-48" points="49.383731 7.05035971 51.0349792 9.76926956 53.7997284 8.28940885 52.7626057 11.3144224 55.6095664 12.6163245 52.6671784 13.6678465 53.453474 16.7703475 50.8202449 15.0581182 48.9536245 17.6258993 48.6114715 14.4382183 45.4987361 14.536907 47.7057778 12.2744791 45.6888616 9.83090306 48.7845532 10.1976083"></polygon>
            <polygon id="Fill-50" points="52.4409604 44.365712 54.9349923 46.2621093 56.9399257 43.8129496 57.0774255 47.0326208 60.15944 47.1446061 57.8353881 49.2626173 59.6735897 51.8505332 56.640115 51.2726966 55.8498526 54.3884892 54.3883317 51.5489836 51.5660689 52.8452038 52.780379 49.8839094 50.0486098 48.3844566 53.0228079 47.5294848"></polygon>
            <polygon id="Fill-52" points="12.689995 7.05035971 13.7344213 9.98393166 16.8530046 9.21321368 15.1228762 11.827505 17.6939529 13.6946616 14.4908697 14.0221056 14.5788551 17.1223022 12.3148795 14.9160006 9.85288956 16.9144069 10.2351645 13.8340748 7.07758118 13.2258089 9.8137954 11.5932147 8.33933334 8.83678911 11.3720037 9.88007476"></polygon>
            <polygon id="Fill-54" points="3.14242883 25.1798561 5.19242996 27.474957 7.64105242 25.6096024 7.12729182 28.6443818 10.1108303 29.3961227 7.41788569 30.8856518 8.69035916 33.6880046 5.84689633 32.5103881 4.45100148 35.2517986 3.5970444 32.295785 0.581547834 32.9129489 2.36337079 30.4027949 0 28.4306789 3.07167084 28.2565839"></polygon>
            <polygon id="Fill-56" points="7.23564739 43.3093525 9.45234679 45.5530663 11.9599031 43.6102018 11.5128662 46.6712168 14.6607039 47.3400821 11.885397 48.9130321 13.3023342 51.6894697 10.2901166 50.5895799 8.90892346 53.381295 7.92638541 50.4380705 4.78760167 51.1458076 6.57754117 48.5738535 4.0443321 46.6622672 7.25620731 46.3996569"></polygon>
            <path d="M44.3267231,51.3669065 C44.3275546,51.4115049 44.3305109,51.4548264 44.3305109,51.4991512 C44.3305109,58.1815206 38.8423007,63.5989013 32.0733387,63.5989013 C25.3039147,63.5989013 19.8161664,58.1815206 19.8161664,51.4991512 L19.8161664,51.4986039 C19.1033135,53.1152724 18.705036,54.8990252 18.705036,56.775258 C18.705036,64.0794511 24.7025721,70 32.1018861,70 C39.5003686,70 45.4987361,64.0794511 45.4987361,56.775258 C45.4987361,54.8476778 45.0772697,53.0179585 44.3267231,51.3669065" id="Fill-58"></path>
            <polygon id="Fill-60" points="61.0609333 25.1798561 59.011021 27.474957 56.5629197 25.6096024 57.076073 28.6443818 54.0929419 29.3961227 56.7852861 30.8856518 55.512756 33.6880046 58.3572457 32.5103881 59.7526625 35.2517986 60.6068377 32.295785 63.6218383 32.9129489 61.8405662 30.4027949 64.2037721 28.4306789 61.1321446 28.2565839"></polygon>
        </g>
    </g>
</svg>